<svg width="16" height="14" viewBox="0 0 16 14" fill="none" xmlns="http://www.w3.org/2000/svg">
<path fill-rule="evenodd" clip-rule="evenodd" d="M2 2C0.895431 2 0 2.89543 0 4V12C0 13.1046 0.895431 14 2 14H14C15.1046 14 16 13.1046 16 12V4C16 2.89543 15.1046 2 14 2H12.4142C12.149 2 11.8946 1.89464 11.7071 1.70711L10.5858 0.585787C10.2107 0.210714 9.70201 0 9.17157 0H6.82843C6.29799 0 5.78929 0.210713 5.41421 0.585786L4.29289 1.70711C4.10536 1.89464 3.851 2 3.58579 2H2ZM8 11C9.65685 11 11 9.65685 11 8C11 6.34315 9.65685 5 8 5C6.34315 5 5 6.34315 5 8C5 9.65685 6.34315 11 8 11Z" fill="#9F3247"/>
</svg>
