<svg width="21" height="21" viewBox="0 0 21 21" fill="none" xmlns="http://www.w3.org/2000/svg">
<path d="M7.00622 1.29377C6.83469 0.653608 6.17669 0.273709 5.53653 0.44524C4.89637 0.61677 4.51647 1.27477 4.688 1.91493L4.99858 3.07404C5.17011 3.7142 5.82812 4.0941 6.46828 3.92257C7.10844 3.75104 7.48834 3.09304 7.31681 2.45288L7.00622 1.29377Z" fill="#9F3247"/>
<path d="M1.91506 4.68788C1.2749 4.51635 0.616892 4.89625 0.445362 5.53641C0.273832 6.17657 0.65373 6.83457 1.29389 7.0061L2.453 7.31668C3.09316 7.48821 3.75116 7.10832 3.92269 6.46816C4.09422 5.828 3.71433 5.16999 3.07417 4.99846L1.91506 4.68788Z" fill="#9F3247"/>
<path d="M12.4912 4.00579C12.9598 3.53716 12.9598 2.77737 12.4912 2.30874C12.0226 1.84011 11.2628 1.84011 10.7941 2.30874L9.94561 3.15726C9.47698 3.62589 9.47698 4.38569 9.94561 4.85432C10.4142 5.32295 11.174 5.32295 11.6427 4.85432L12.4912 4.00579Z" fill="#9F3247"/>
<path d="M4.00591 12.4911L4.85444 11.6425C5.32307 11.1739 5.32307 10.4141 4.85444 9.94549C4.38581 9.47686 3.62602 9.47686 3.15739 9.94549L2.30886 10.794C1.84023 11.2626 1.84023 12.0224 2.30886 12.4911C2.77749 12.9597 3.53729 12.9597 4.00591 12.4911Z" fill="#9F3247"/>
<path d="M7.84582 6.28582C7.40012 6.10754 6.89106 6.21203 6.55163 6.55146C6.21219 6.8909 6.1077 7.39996 6.28598 7.84566L11.086 19.8457C11.2615 20.2844 11.6781 20.5793 12.1503 20.599C12.6224 20.6186 13.0621 20.3593 13.2735 19.9366L14.9289 16.6258L18.5516 20.2485C19.0203 20.7171 19.7801 20.7171 20.2487 20.2485C20.7173 19.7799 20.7173 19.0201 20.2487 18.5515L16.626 14.9287L19.9368 13.2733C20.3595 13.062 20.6188 12.6223 20.5991 12.1501C20.5795 11.678 20.2846 11.2613 19.8458 11.0858L7.84582 6.28582Z" fill="#9F3247"/>
</svg>
