<svg width="16" height="16" viewBox="0 0 16 16" fill="none" xmlns="http://www.w3.org/2000/svg">
<path fill-rule="evenodd" clip-rule="evenodd" d="M0 11.9242C0 11.3642 0.446971 10.9102 0.998338 10.9102C1.5497 10.9102 1.99668 11.3642 1.99668 11.9242V13.972L14.0033 13.972V11.9242C14.0033 11.3642 14.4503 10.9102 15.0017 10.9102C15.553 10.9102 16 11.3642 16 11.9242V13.972C16 15.092 15.1061 16 14.0033 16H1.99668C0.893943 16 0 15.092 0 13.972L0 11.9242ZM11.2502 5.36704L8.96109 3.04202V11.0014C8.96109 11.5614 8.51412 12.0154 7.96275 12.0154C7.41139 12.0154 6.96441 11.5614 6.96441 11.0014L6.96441 3.04203L4.67533 5.36704C4.28546 5.76303 3.65335 5.76303 3.26347 5.36704C2.8736 4.97104 2.8736 4.32901 3.26347 3.93301L6.55089 0.593992C7.33064 -0.197998 8.59487 -0.197996 9.37462 0.593992L12.662 3.93301C13.0519 4.32901 13.0519 4.97104 12.662 5.36704C12.2722 5.76303 11.64 5.76303 11.2502 5.36704Z" fill="#2D5BFF"/>
</svg>
