<svg width="24" height="24" viewBox="0 0 24 24" fill="none" xmlns="http://www.w3.org/2000/svg">
<path fill-rule="evenodd" clip-rule="evenodd" d="M8.66667 2C7.43937 2 6.44444 2.94256 6.44444 4.10526V6.21052H5.33333H3.11111C2.49746 6.21052 2 6.6818 2 7.26315C2 7.84451 2.49746 8.31578 3.11111 8.31578H4.23556L4.38355 19.9202C4.39825 21.0729 5.38878 22 6.60561 22H17.5556C18.7829 22 19.7778 21.0574 19.7778 19.8947V8.31578H20.8889C21.5025 8.31578 22 7.84451 22 7.26315C22 6.6818 21.5025 6.21052 20.8889 6.21052H18.6667H17.5556V4.10526C17.5556 2.94256 16.5606 2 15.3333 2H8.66667ZM15.3333 6.21052V4.10526H8.66667V6.21052H15.3333ZM8.66667 8.31578H6.45795L6.60561 19.8947L17.5556 19.8947V8.31578H15.3333H8.66667ZM10.8889 10.421C10.8889 9.83969 10.3914 9.36842 9.77778 9.36842C9.16413 9.36842 8.66667 9.83969 8.66667 10.421V16.7368C8.66667 17.3182 9.16413 17.7895 9.77778 17.7895C10.3914 17.7895 10.8889 17.3182 10.8889 16.7368V10.421ZM14.2222 9.36842C14.8359 9.36842 15.3333 9.83969 15.3333 10.421V16.7368C15.3333 17.3182 14.8359 17.7895 14.2222 17.7895C13.6086 17.7895 13.1111 17.3182 13.1111 16.7368V10.421C13.1111 9.83969 13.6086 9.36842 14.2222 9.36842Z" fill="#FFFCFC"/>
</svg>
